<svg width="32" height="27" viewBox="0 0 32 27" fill="#ffb800" xmlns="http://www.w3.org/2000/svg">
  <mask id="mask0_317_1268" style="mask-type:luminance" maskUnits="userSpaceOnUse" x="0" y="0"
    width="32" height="27">
    <path d="M32 0H0V26.4828H32V0Z" fill="#ffb800" />
  </mask>
  <g mask="url(#mask0_317_1268)">
    <path
      d="M5.89062 11.4383C6.03147 11.1118 6.15596 10.8231 6.2819 10.5334C6.62958 9.73213 6.97726 8.93124 7.32494 8.13058C7.65789 7.3638 7.991 6.59723 8.32426 5.83077C8.95938 4.36815 9.59417 2.9062 10.2287 1.44483C10.4137 1.01949 10.6059 0.596932 10.792 0.171574C10.8526 0.0316571 10.9165 -0.0438964 11.0933 0.0414553C11.6625 0.31756 12.2388 0.578735 12.8117 0.846917C13.7394 1.2816 14.6662 1.71907 15.5958 2.14909C15.6625 2.17565 15.7372 2.17565 15.804 2.14909C16.7096 1.7256 17.6112 1.29512 18.5154 0.868369C19.0946 0.592728 19.6815 0.334819 20.253 0.0456489C20.4674 -0.0625553 20.5457 0.0288649 20.6154 0.185566C20.9009 0.833853 21.1844 1.48308 21.4658 2.13323C21.9426 3.23204 22.4184 4.33152 22.8933 5.43155C23.4586 6.73748 24.0244 8.04341 24.5911 9.34923C24.842 9.92666 25.0991 10.5012 25.3514 11.0782C25.3971 11.1832 25.4308 11.2932 25.4822 11.4341L5.89062 11.4383Z"
      fill="#ffb800" />
    <path
      d="M15.977 16.2159H0.96673C0.702366 16.2159 0.442802 16.2191 0.226029 16.0293C0.0198168 15.8488 -0.0623758 15.6263 0.0486609 15.3628C0.139022 15.1479 0.311579 15.0164 0.565858 14.9776C1.02682 14.9077 1.48394 14.8144 1.94345 14.7332C2.1535 14.6959 2.36404 14.6595 2.57601 14.6306C2.89037 14.5877 3.20761 14.5606 3.52149 14.5122C3.97379 14.4418 4.42418 14.3587 4.87504 14.2813C5.11539 14.2393 5.35956 14.1941 5.60229 14.1549C6.17189 14.0617 6.74052 13.9683 7.31107 13.8858C7.84365 13.8084 8.37816 13.7458 8.9117 13.675L10.8204 13.4255C10.844 13.4222 10.8685 13.4194 10.8916 13.4176C11.4957 13.3784 12.099 13.3164 12.7032 13.3047C14.6211 13.2679 16.5393 13.2431 18.4578 13.2301C19.0067 13.2272 19.5565 13.279 20.105 13.3233C20.7544 13.3746 21.4028 13.426 22.0503 13.5099C22.7799 13.6055 23.5038 13.7398 24.2311 13.8531C24.4892 13.8937 24.7507 13.917 25.0088 13.9572C25.5712 14.0443 26.1326 14.14 26.695 14.2276C27.1492 14.2986 27.6054 14.3583 28.0596 14.431C28.5816 14.5149 29.1017 14.6111 29.6242 14.695C30.0697 14.7663 30.5226 14.805 30.9614 14.9025C31.2459 14.9659 31.5651 14.9244 31.8079 15.1576C32.1178 15.4552 32.0438 15.9664 31.6339 16.111C31.433 16.1791 31.2217 16.2134 31.009 16.2126C28.1516 16.2191 25.2938 16.2209 22.4358 16.2178H15.977V16.2159Z"
      fill="#ffb800" />
    <path
      d="M17.4165 20.7735C17.8635 19.2638 18.8322 18.2144 20.3005 17.6319C20.9864 17.36 21.7276 17.2326 22.4727 17.3361C24.1666 17.5693 25.4528 18.4056 26.2416 19.8948C27.0818 21.4806 26.7939 23.5294 25.5869 24.881C24.9314 25.6165 24.1194 26.1169 23.16 26.3501C22.5167 26.5023 21.8478 26.5221 21.1961 26.4085C20.2313 26.2499 19.4286 25.8292 18.7273 25.1995C18.179 24.7142 17.7716 24.0978 17.5459 23.4118C17.4243 23.0388 17.3651 22.6475 17.2949 22.2613C17.2695 22.1214 17.2238 22.0654 17.0681 22.0673C16.3631 22.0747 15.6581 22.0747 14.9531 22.0673C14.7729 22.0673 14.7013 22.1163 14.6844 22.3004C14.5291 23.9925 13.6331 25.2093 12.1104 26.0013C11.7172 26.2055 11.3 26.3744 10.8367 26.3945C10.457 26.4112 10.0757 26.4929 9.69988 26.4719C8.60973 26.4103 7.65176 26.026 6.8404 25.2984C6.32789 24.8485 5.9199 24.2979 5.64353 23.6833C5.34323 23.0033 5.22516 22.2606 5.30034 21.5244C5.44213 20.0071 6.20639 18.8528 7.50083 18.0273C8.02956 17.6892 8.61887 17.4639 9.26056 17.4038C9.56866 17.3749 9.8787 17.3105 10.1839 17.3269C11.1429 17.3767 12.0244 17.6622 12.7993 18.2284C13.6376 18.8412 14.2239 19.6234 14.5234 20.607C14.5446 20.6765 14.6585 20.7664 14.7301 20.7674C15.6179 20.7772 16.5062 20.7735 17.4165 20.7735ZM13.4121 21.9008C13.3775 19.9974 11.9365 18.5973 10.0027 18.5847C8.27615 18.5735 6.63514 19.7786 6.59669 21.8863C6.56209 23.7756 8.11032 25.2079 9.94311 25.2313C10.3981 25.2399 10.8501 25.16 11.2727 24.9962C11.6952 24.8323 12.0795 24.5879 12.403 24.2774C12.7264 23.9668 12.9824 23.5964 13.1557 23.1883C13.329 22.78 13.4162 22.3423 13.4121 21.9008ZM21.9944 18.6159C20.1265 18.5334 18.5658 20.17 18.5884 21.9106C18.6119 23.7714 20.102 25.1828 21.8882 25.2299C23.8589 25.2821 25.3774 23.8022 25.4115 21.9515C25.4447 20.1592 23.943 18.5567 21.9944 18.6159Z"
      fill="#ffb800" />
    <path
      d="M11.1998 20.8472C11.2048 20.8857 11.2048 20.9247 11.1998 20.9632C11.1642 21.091 11.2901 21.2795 11.0681 21.3363C10.8109 21.4026 10.6489 21.3224 10.5076 21.1232C10.4136 20.9822 10.2941 20.8588 10.1548 20.759C10.0697 20.7025 9.89524 20.6815 9.81545 20.7301C9.68519 20.8084 9.69673 20.9838 9.80344 21.078C9.98797 21.2416 10.2044 21.3709 10.4053 21.5164C10.6628 21.703 10.9445 21.8666 11.1681 22.0859C11.3993 22.313 11.3987 22.563 11.1777 22.7943C10.9839 22.9925 10.7607 23.1614 10.5153 23.2953C10.3456 23.3885 10.2269 23.4622 10.2664 23.6684C10.2729 23.7378 10.2746 23.8076 10.2717 23.8772C10.2784 24.0479 10.2115 24.1342 10.0188 24.1315C9.82604 24.1287 9.73038 24.0629 9.75394 23.8688C9.75441 23.8611 9.75441 23.8533 9.75394 23.8456C9.74768 23.4258 9.74721 23.4319 9.32806 23.3848C9.16975 23.3712 9.01396 23.3374 8.8647 23.2845C8.82518 23.2639 8.791 23.2348 8.76477 23.1995C8.73853 23.1642 8.72093 23.1236 8.71329 23.0807C8.69262 22.8727 8.70751 22.6609 8.70512 22.452C8.70512 22.3121 8.77192 22.2654 8.91181 22.2617C9.13386 22.257 9.30499 22.2617 9.44054 22.507C9.55878 22.722 9.74913 22.9589 10.0755 22.9109C10.1591 22.8984 10.2711 22.8461 10.3023 22.7813C10.3157 22.7398 10.3183 22.6959 10.31 22.6532C10.3016 22.6106 10.2825 22.5706 10.2543 22.5369C10.062 22.3741 9.84574 22.2351 9.63665 22.0896C9.42756 21.9441 9.19635 21.8191 9.00553 21.6517C8.69021 21.3751 8.68109 20.9618 8.98823 20.6723C9.1652 20.5094 9.36586 20.3727 9.58377 20.2664C9.72221 20.1975 9.77604 20.1265 9.76066 19.9866C9.75249 19.9097 9.75633 19.8313 9.75586 19.7534C9.75586 19.488 9.7871 19.4624 10.0591 19.4685C10.1966 19.4713 10.2687 19.5221 10.2745 19.6583C10.2807 19.8201 10.2336 20.0249 10.3172 20.1312C10.3947 20.2296 10.6153 20.2184 10.7705 20.2637C11.1969 20.39 11.1965 20.3914 11.1998 20.8472Z"
      fill="#ffb800" />
    <path
      d="M22.2637 20.1734C22.5232 20.2201 22.74 20.2751 22.9602 20.2943C23.1375 20.3096 23.2005 20.3982 23.2044 20.5475C23.2158 20.7257 23.2131 20.9046 23.1962 21.0825C23.1842 21.1715 23.1073 21.3221 23.052 21.3246C22.8847 21.3315 22.6881 21.4243 22.5501 21.2233C22.4381 21.0596 22.3161 20.8902 22.1593 20.7723C22.0742 20.7084 21.8685 20.6939 21.7873 20.7509C21.6556 20.8441 21.6912 21.0167 21.8234 21.1095C22.1209 21.3198 22.4444 21.4957 22.7337 21.7158C22.9319 21.8607 23.1031 22.0374 23.2399 22.2382C23.398 22.4825 23.2788 22.7316 23.0832 22.9075C22.894 23.0665 22.6872 23.2046 22.4665 23.3193C22.33 23.3953 22.2339 23.4644 22.2622 23.6336C22.2747 23.7092 22.2574 23.7889 22.2622 23.8668C22.2776 24.0534 22.2031 24.1317 22.0012 24.135C21.782 24.1387 21.7412 24.0319 21.7608 23.858C21.7608 23.8425 21.7608 23.8272 21.7608 23.8113C21.7657 23.4116 21.7647 23.4191 21.3677 23.3869C21.186 23.3709 21.0067 23.3354 20.8332 23.281C20.7779 23.2638 20.7173 23.1672 20.7134 23.1043C20.6976 22.8795 20.6992 22.6539 20.7183 22.4294C20.724 22.3702 20.8226 22.2829 20.8899 22.2718C21.1196 22.2322 21.3067 22.2718 21.4432 22.5091C21.5666 22.7269 21.7537 22.9345 22.0603 22.9117C22.1425 22.9051 22.2564 22.8576 22.2886 22.796C22.3208 22.7344 22.3059 22.5899 22.255 22.5493C22.0079 22.3539 21.7469 22.1761 21.4816 22.0031C21.2163 21.8301 20.9419 21.6841 20.7885 21.3968C20.7005 21.2326 20.6924 21.0792 20.7971 20.915C20.9711 20.638 21.1951 20.4179 21.5085 20.2985C21.6916 20.2285 21.8036 20.1324 21.7623 19.9253C21.7494 19.8578 21.7671 19.7854 21.76 19.716C21.7416 19.5387 21.808 19.4627 22.0032 19.4659C22.1843 19.4688 22.2723 19.5242 22.2637 19.7085C22.2603 19.868 22.2637 20.0279 22.2637 20.1734Z"
      fill="#ffb800" />
  </g>
</svg>