<svg width="37" height="39" viewBox="0 0 37 39" fill="none" xmlns="http://www.w3.org/2000/svg">
<g clip-path="url(#clip0_631_2390)">
<path d="M32.2063 4.57445C31.262 3.70318 27.4462 0.933132 18.9468 0.895499C18.9468 0.895499 8.92376 0.291084 4.03769 4.77288C1.31783 7.49331 0.361026 11.4739 0.2601 16.409C0.159174 21.3441 0.0285966 30.5928 8.94371 33.1005H8.95227L8.94656 36.9272C8.94656 36.9272 8.88954 38.4764 9.90964 38.7923C11.1436 39.1755 11.8677 37.998 13.0457 36.7287C13.6924 36.0319 14.5853 35.0084 15.2581 34.2261C21.3553 34.7393 26.0447 33.5664 26.5772 33.393C27.8083 32.9939 34.7745 32.1015 35.9074 22.8534C37.0769 13.3214 35.3418 7.29203 32.2063 4.57445Z" fill="white"/>
<path d="M30.2231 6.49973C29.4248 5.77444 25.9791 3.60938 18.7894 3.57802C18.7894 3.57802 10.2757 3.01865 6.14289 6.76203C3.84269 9.03314 3.06779 12.4105 2.98283 16.5319C2.89787 20.6533 2.45767 28.5267 9.99632 30.621C9.99632 30.621 9.96667 36.4662 9.96325 36.9799C9.96325 37.3391 10.0203 37.5849 10.2255 37.6356C10.3732 37.6716 10.5945 37.5952 10.7826 37.4076C11.988 36.197 15.8472 31.5413 15.8472 31.5413C21.0252 31.8794 25.1449 30.8571 25.5879 30.7122C26.6325 30.3764 32.2827 29.8912 33.2389 22.1672C34.2271 14.2054 32.8757 8.77085 30.2231 6.49973Z" fill="#7360F2"/>
<path d="M22.4454 16.1931C22.3519 14.3081 21.3944 13.318 19.5728 13.223" stroke="white" stroke-width="0.984637" stroke-linecap="round" stroke-linejoin="round"/>
<path d="M24.9114 17.02C24.9494 15.2638 24.4292 13.7965 23.3507 12.618C22.2673 11.4354 20.7677 10.7843 18.8433 10.6434" stroke="white" stroke-width="0.984637" stroke-linecap="round" stroke-linejoin="round"/>
<path d="M27.4364 18.0076C27.4132 14.96 26.5026 12.5598 24.7045 10.807C22.9065 9.05424 20.6703 8.16853 17.9961 8.1499" stroke="white" stroke-width="0.984637" stroke-linecap="round" stroke-linejoin="round"/>
<path d="M19.6676 22.6313C19.6676 22.6313 20.3433 22.6884 20.7071 22.2402L21.4164 21.3478C21.7585 20.9053 22.5842 20.6231 23.3927 21.0735C23.9986 21.4191 24.5869 21.7948 25.1552 22.1991C25.6918 22.5937 26.7906 23.5106 26.794 23.5106C27.3174 23.9525 27.4383 24.6014 27.0819 25.2856C27.0819 25.2896 27.0791 25.2965 27.0791 25.2999C26.6866 25.9803 26.1883 26.5939 25.6028 27.1177C25.596 27.1211 25.596 27.1245 25.5897 27.128C25.0811 27.553 24.5814 27.7945 24.0907 27.8527C24.0184 27.8653 23.945 27.8699 23.8717 27.8664C23.6553 27.8685 23.44 27.8353 23.2342 27.7683L23.2183 27.7449C22.4622 27.5317 21.1997 26.998 19.0974 25.8382C17.8808 25.1749 16.7226 24.4098 15.6351 23.5511C15.0901 23.1209 14.5701 22.6598 14.0779 22.17L14.0255 22.1176L13.973 22.0651L13.9205 22.0127C13.9029 21.9956 13.8858 21.9779 13.8681 21.9602C13.3783 21.468 12.9172 20.9481 12.487 20.403C11.6284 19.3156 10.8633 18.1576 10.2 16.9413C9.04017 14.8384 8.50646 13.5771 8.29321 12.8199L8.26983 12.8039C8.20298 12.5981 8.17005 12.3828 8.17232 12.1664C8.16833 12.0932 8.17273 12.0197 8.18544 11.9475C8.24664 11.4575 8.4886 10.9574 8.91131 10.4473C8.91473 10.441 8.91815 10.441 8.92157 10.4341C9.44519 9.84872 10.0588 9.35057 10.7394 8.95846C10.7428 8.95846 10.7496 8.95504 10.7536 8.95504C11.4379 8.59866 12.0868 8.71954 12.5281 9.24014C12.5315 9.24356 13.4467 10.3423 13.8396 10.8789C14.244 11.4478 14.6196 12.0366 14.9651 12.6431C15.4156 13.4511 15.1334 14.2784 14.6909 14.6194L13.7985 15.3288C13.3481 15.6925 13.4074 16.3682 13.4074 16.3682C13.4074 16.3682 14.7291 21.3706 19.6676 22.6313Z" fill="white"/>
</g>
<defs>
<clipPath id="clip0_631_2390">
<rect width="36.0362" height="38" fill="white" transform="translate(0.237793 0.867859)"/>
</clipPath>
</defs>
</svg>
